# xmcd
#
# Track frame offsets: 
#        150
#        12832
#        28565
#        45233
#        61646
#        73937
#        93661
#        111157
#        128761
#        145442
#        164270
#        181030
#        200754
#        223493
#
# Disc length: 3225 seconds
#
# Revision: 1
# Processed by: cddbd v1.5.2PL0 Copyright (c) Steve Scherf et al.
# Submitted via: ExactAudioCopy v1.3
#
DISCID=c90c970e
DTITLE=Dziani - Porwana Piosenka
DYEAR=2002
DGENRE=Folk
TTITLE0=Woda wie
TTITLE1=Porwana piosenka
TTITLE2=Orfeusz
TTITLE3=Ładna panno
TTITLE4=Sasman graj
TTITLE5=Gelem gelem
TTITLE6=Moja siostra
TTITLE7=Pamiętam dzień
TTITLE8=Lumiasa
TTITLE9=Długi warkocz
TTITLE10=Hej
TTITLE11=Uśmiechnij się
TTITLE12=Anioł
TTITLE13=Karuzela
EXTD=
EXTT0=
EXTT1=
EXTT2=
EXTT3=
EXTT4=
EXTT5=
EXTT6=
EXTT7=
EXTT8=
EXTT9=
EXTT10=
EXTT11=
EXTT12=
EXTT13=
PLAYORDER=
